<mxfile host="app.diagrams.net" modified="2022-09-28T09:33:40.272Z" agent="5.0 (Windows NT 10.0; Win64; x64) AppleWebKit/537.36 (KHTML, like Gecko) Chrome/105.0.0.0 Safari/537.36" etag="iUxBJhq39OPMwjRZ4w17" version="20.3.7" type="github" pages="2">
  <diagram id="C5RBs43oDa-KdzZeNtuy" name="Page-1">
    <mxGraphModel dx="1422" dy="796" grid="1" gridSize="10" guides="1" tooltips="1" connect="1" arrows="1" fold="1" page="1" pageScale="1" pageWidth="827" pageHeight="1169" math="0" shadow="0">
      <root>
        <mxCell id="WIyWlLk6GJQsqaUBKTNV-0" />
        <mxCell id="WIyWlLk6GJQsqaUBKTNV-1" parent="WIyWlLk6GJQsqaUBKTNV-0" />
        <mxCell id="WIyWlLk6GJQsqaUBKTNV-3" value="데이터셋 추출" style="rounded=1;whiteSpace=wrap;html=1;fontSize=12;glass=0;strokeWidth=1;shadow=0;" parent="WIyWlLk6GJQsqaUBKTNV-1" vertex="1">
          <mxGeometry x="326" y="190" width="165" height="40" as="geometry" />
        </mxCell>
        <mxCell id="WIyWlLk6GJQsqaUBKTNV-6" value="이관 여부" style="rhombus;whiteSpace=wrap;html=1;shadow=0;fontFamily=Helvetica;fontSize=12;align=center;strokeWidth=1;spacing=6;spacingTop=-4;" parent="WIyWlLk6GJQsqaUBKTNV-1" vertex="1">
          <mxGeometry x="336" y="280" width="145" height="80" as="geometry" />
        </mxCell>
        <mxCell id="WIyWlLk6GJQsqaUBKTNV-2" value="" style="rounded=0;html=1;jettySize=auto;orthogonalLoop=1;fontSize=11;endArrow=block;endFill=0;endSize=8;strokeWidth=1;shadow=0;labelBackgroundColor=none;edgeStyle=orthogonalEdgeStyle;" parent="WIyWlLk6GJQsqaUBKTNV-1" source="WIyWlLk6GJQsqaUBKTNV-3" target="WIyWlLk6GJQsqaUBKTNV-6" edge="1">
          <mxGeometry relative="1" as="geometry" />
        </mxCell>
        <mxCell id="WIyWlLk6GJQsqaUBKTNV-7" value="Rollback" style="rounded=1;whiteSpace=wrap;html=1;fontSize=12;glass=0;strokeWidth=1;shadow=0;" parent="WIyWlLk6GJQsqaUBKTNV-1" vertex="1">
          <mxGeometry x="546" y="300" width="165" height="40" as="geometry" />
        </mxCell>
        <mxCell id="cvXRUhGtZtmQz_hgx9b6-6" value="No" style="edgeStyle=orthogonalEdgeStyle;rounded=0;orthogonalLoop=1;jettySize=auto;html=1;entryX=0;entryY=0.5;entryDx=0;entryDy=0;endArrow=block;endFill=0;" edge="1" parent="WIyWlLk6GJQsqaUBKTNV-1" source="WIyWlLk6GJQsqaUBKTNV-6" target="WIyWlLk6GJQsqaUBKTNV-7">
          <mxGeometry relative="1" as="geometry" />
        </mxCell>
        <mxCell id="cvXRUhGtZtmQz_hgx9b6-29" style="edgeStyle=orthogonalEdgeStyle;rounded=0;orthogonalLoop=1;jettySize=auto;html=1;entryX=0.5;entryY=0;entryDx=0;entryDy=0;strokeColor=default;fontFamily=Helvetica;fontSize=12;fontColor=default;endArrow=block;endFill=0;" edge="1" parent="WIyWlLk6GJQsqaUBKTNV-1" source="WIyWlLk6GJQsqaUBKTNV-10" target="WIyWlLk6GJQsqaUBKTNV-11">
          <mxGeometry relative="1" as="geometry" />
        </mxCell>
        <mxCell id="WIyWlLk6GJQsqaUBKTNV-10" value="Commit" style="rhombus;whiteSpace=wrap;html=1;shadow=0;fontFamily=Helvetica;fontSize=12;align=center;strokeWidth=1;spacing=6;spacingTop=-4;" parent="WIyWlLk6GJQsqaUBKTNV-1" vertex="1">
          <mxGeometry x="336" y="430" width="145" height="80" as="geometry" />
        </mxCell>
        <mxCell id="cvXRUhGtZtmQz_hgx9b6-5" value="Yes" style="edgeStyle=orthogonalEdgeStyle;rounded=0;orthogonalLoop=1;jettySize=auto;html=1;exitX=0.5;exitY=1;exitDx=0;exitDy=0;endArrow=block;endFill=0;" edge="1" parent="WIyWlLk6GJQsqaUBKTNV-1" source="WIyWlLk6GJQsqaUBKTNV-6" target="WIyWlLk6GJQsqaUBKTNV-10">
          <mxGeometry relative="1" as="geometry" />
        </mxCell>
        <mxCell id="WIyWlLk6GJQsqaUBKTNV-11" value="종료" style="rounded=1;whiteSpace=wrap;html=1;fontSize=12;glass=0;strokeWidth=1;shadow=0;" parent="WIyWlLk6GJQsqaUBKTNV-1" vertex="1">
          <mxGeometry x="326" y="560" width="165" height="40" as="geometry" />
        </mxCell>
        <mxCell id="_vldt-JVYSPxojjHOOxf-2" value="업무 테이블에서 &lt;br&gt;인터페이스 테이블로 이관&lt;br&gt;(IF_OUT_* : 30개)" style="rounded=0;whiteSpace=wrap;html=1;fillColor=#f5f5f5;fontColor=#333333;strokeColor=#666666;" vertex="1" parent="WIyWlLk6GJQsqaUBKTNV-1">
          <mxGeometry x="116" y="280" width="155" height="80" as="geometry" />
        </mxCell>
        <mxCell id="cvXRUhGtZtmQz_hgx9b6-2" style="edgeStyle=orthogonalEdgeStyle;rounded=0;orthogonalLoop=1;jettySize=auto;html=1;exitX=0;exitY=0.5;exitDx=0;exitDy=0;entryX=1;entryY=0.5;entryDx=0;entryDy=0;endArrow=baseDash;endFill=0;" edge="1" parent="WIyWlLk6GJQsqaUBKTNV-1" source="WIyWlLk6GJQsqaUBKTNV-6" target="_vldt-JVYSPxojjHOOxf-2">
          <mxGeometry relative="1" as="geometry" />
        </mxCell>
        <mxCell id="_vldt-JVYSPxojjHOOxf-12" value="수정된 대상 데이터셋" style="rounded=0;whiteSpace=wrap;html=1;fillColor=#f5f5f5;fontColor=#333333;strokeColor=#666666;" vertex="1" parent="WIyWlLk6GJQsqaUBKTNV-1">
          <mxGeometry x="116" y="180" width="155" height="60" as="geometry" />
        </mxCell>
        <mxCell id="cvXRUhGtZtmQz_hgx9b6-3" style="edgeStyle=orthogonalEdgeStyle;rounded=0;orthogonalLoop=1;jettySize=auto;html=1;exitX=0;exitY=0.5;exitDx=0;exitDy=0;entryX=1;entryY=0.5;entryDx=0;entryDy=0;endArrow=baseDash;endFill=0;" edge="1" parent="WIyWlLk6GJQsqaUBKTNV-1" source="WIyWlLk6GJQsqaUBKTNV-3" target="_vldt-JVYSPxojjHOOxf-12">
          <mxGeometry relative="1" as="geometry" />
        </mxCell>
        <mxCell id="_vldt-JVYSPxojjHOOxf-15" style="edgeStyle=orthogonalEdgeStyle;rounded=0;orthogonalLoop=1;jettySize=auto;html=1;endArrow=block;endFill=0;" edge="1" parent="WIyWlLk6GJQsqaUBKTNV-1" source="_vldt-JVYSPxojjHOOxf-14" target="WIyWlLk6GJQsqaUBKTNV-3">
          <mxGeometry relative="1" as="geometry" />
        </mxCell>
        <mxCell id="_vldt-JVYSPxojjHOOxf-14" value="&lt;span style=&quot;text-align: left;&quot;&gt;prc_biz_batch_dp_anon_send&lt;br&gt;실행&lt;br&gt;&lt;/span&gt;" style="rounded=1;whiteSpace=wrap;html=1;fontSize=12;glass=0;strokeWidth=1;shadow=0;" vertex="1" parent="WIyWlLk6GJQsqaUBKTNV-1">
          <mxGeometry x="311.5" y="80" width="194" height="70" as="geometry" />
        </mxCell>
        <mxCell id="cvXRUhGtZtmQz_hgx9b6-7" value="배치 로그테이블 성공" style="rounded=0;whiteSpace=wrap;html=1;fillColor=#f5f5f5;fontColor=#333333;strokeColor=#666666;" vertex="1" parent="WIyWlLk6GJQsqaUBKTNV-1">
          <mxGeometry x="116" y="550" width="155" height="60" as="geometry" />
        </mxCell>
        <mxCell id="cvXRUhGtZtmQz_hgx9b6-8" style="edgeStyle=orthogonalEdgeStyle;rounded=0;orthogonalLoop=1;jettySize=auto;html=1;exitX=0;exitY=0.5;exitDx=0;exitDy=0;entryX=1;entryY=0.5;entryDx=0;entryDy=0;endArrow=baseDash;endFill=0;" edge="1" parent="WIyWlLk6GJQsqaUBKTNV-1" source="WIyWlLk6GJQsqaUBKTNV-11" target="cvXRUhGtZtmQz_hgx9b6-7">
          <mxGeometry relative="1" as="geometry" />
        </mxCell>
        <mxCell id="cvXRUhGtZtmQz_hgx9b6-21" value="배치 로그테이블 실패" style="rounded=0;whiteSpace=wrap;html=1;fillColor=#f5f5f5;fontColor=#333333;strokeColor=#666666;" vertex="1" parent="WIyWlLk6GJQsqaUBKTNV-1">
          <mxGeometry x="551" y="390" width="155" height="60" as="geometry" />
        </mxCell>
        <mxCell id="cvXRUhGtZtmQz_hgx9b6-22" style="edgeStyle=orthogonalEdgeStyle;rounded=0;orthogonalLoop=1;jettySize=auto;html=1;exitX=0.5;exitY=1;exitDx=0;exitDy=0;entryX=0.5;entryY=0;entryDx=0;entryDy=0;strokeColor=default;endArrow=baseDash;endFill=0;" edge="1" parent="WIyWlLk6GJQsqaUBKTNV-1" source="WIyWlLk6GJQsqaUBKTNV-7" target="cvXRUhGtZtmQz_hgx9b6-21">
          <mxGeometry relative="1" as="geometry" />
        </mxCell>
      </root>
    </mxGraphModel>
  </diagram>
  <diagram name="Page-1의 복사본" id="woj7shikoheOouK08yFX">
    <mxGraphModel dx="2062" dy="1154" grid="1" gridSize="10" guides="1" tooltips="1" connect="1" arrows="1" fold="1" page="1" pageScale="1" pageWidth="827" pageHeight="1169" math="0" shadow="0">
      <root>
        <mxCell id="0pUTNga4et0UCxMC0Npy-0" />
        <mxCell id="0pUTNga4et0UCxMC0Npy-1" parent="0pUTNga4et0UCxMC0Npy-0" />
        <mxCell id="0pUTNga4et0UCxMC0Npy-2" value="" style="rounded=0;html=1;jettySize=auto;orthogonalLoop=1;fontSize=11;endArrow=block;endFill=0;endSize=8;strokeWidth=1;shadow=0;labelBackgroundColor=none;edgeStyle=orthogonalEdgeStyle;" edge="1" parent="0pUTNga4et0UCxMC0Npy-1" source="0pUTNga4et0UCxMC0Npy-3" target="0pUTNga4et0UCxMC0Npy-6">
          <mxGeometry relative="1" as="geometry" />
        </mxCell>
        <mxCell id="0pUTNga4et0UCxMC0Npy-3" value="데이터셋 추출" style="rounded=1;whiteSpace=wrap;html=1;fontSize=12;glass=0;strokeWidth=1;shadow=0;" vertex="1" parent="0pUTNga4et0UCxMC0Npy-1">
          <mxGeometry x="330" y="110" width="165" height="40" as="geometry" />
        </mxCell>
        <mxCell id="0pUTNga4et0UCxMC0Npy-4" value="Yes" style="rounded=0;html=1;jettySize=auto;orthogonalLoop=1;fontSize=11;endArrow=block;endFill=0;endSize=8;strokeWidth=1;shadow=0;labelBackgroundColor=none;edgeStyle=orthogonalEdgeStyle;" edge="1" parent="0pUTNga4et0UCxMC0Npy-1" source="0pUTNga4et0UCxMC0Npy-6" target="0pUTNga4et0UCxMC0Npy-9">
          <mxGeometry y="20" relative="1" as="geometry">
            <mxPoint as="offset" />
          </mxGeometry>
        </mxCell>
        <mxCell id="0pUTNga4et0UCxMC0Npy-5" value="No" style="edgeStyle=orthogonalEdgeStyle;rounded=0;html=1;jettySize=auto;orthogonalLoop=1;fontSize=11;endArrow=block;endFill=0;endSize=8;strokeWidth=1;shadow=0;labelBackgroundColor=none;" edge="1" parent="0pUTNga4et0UCxMC0Npy-1" source="0pUTNga4et0UCxMC0Npy-6" target="0pUTNga4et0UCxMC0Npy-7">
          <mxGeometry y="10" relative="1" as="geometry">
            <mxPoint as="offset" />
          </mxGeometry>
        </mxCell>
        <mxCell id="0pUTNga4et0UCxMC0Npy-6" value="이관 여부" style="rhombus;whiteSpace=wrap;html=1;shadow=0;fontFamily=Helvetica;fontSize=12;align=center;strokeWidth=1;spacing=6;spacingTop=-4;" vertex="1" parent="0pUTNga4et0UCxMC0Npy-1">
          <mxGeometry x="340" y="200" width="145" height="80" as="geometry" />
        </mxCell>
        <mxCell id="0pUTNga4et0UCxMC0Npy-7" value="Rollback" style="rounded=1;whiteSpace=wrap;html=1;fontSize=12;glass=0;strokeWidth=1;shadow=0;" vertex="1" parent="0pUTNga4et0UCxMC0Npy-1">
          <mxGeometry x="550" y="220" width="165" height="40" as="geometry" />
        </mxCell>
        <mxCell id="0pUTNga4et0UCxMC0Npy-8" value="No" style="rounded=0;jettySize=auto;orthogonalLoop=1;fontSize=11;endArrow=block;endFill=0;endSize=8;strokeWidth=1;shadow=0;labelBackgroundColor=none;edgeStyle=orthogonalEdgeStyle;html=1;" edge="1" parent="0pUTNga4et0UCxMC0Npy-1" source="0pUTNga4et0UCxMC0Npy-9" target="0pUTNga4et0UCxMC0Npy-10">
          <mxGeometry x="0.3333" y="20" relative="1" as="geometry">
            <mxPoint as="offset" />
          </mxGeometry>
        </mxCell>
        <mxCell id="0pUTNga4et0UCxMC0Npy-9" value="Commit" style="rhombus;whiteSpace=wrap;html=1;shadow=0;fontFamily=Helvetica;fontSize=12;align=center;strokeWidth=1;spacing=6;spacingTop=-4;" vertex="1" parent="0pUTNga4et0UCxMC0Npy-1">
          <mxGeometry x="340" y="320" width="145" height="80" as="geometry" />
        </mxCell>
        <mxCell id="0pUTNga4et0UCxMC0Npy-10" value="종료" style="rounded=1;whiteSpace=wrap;html=1;fontSize=12;glass=0;strokeWidth=1;shadow=0;" vertex="1" parent="0pUTNga4et0UCxMC0Npy-1">
          <mxGeometry x="330" y="460" width="165" height="40" as="geometry" />
        </mxCell>
        <mxCell id="0pUTNga4et0UCxMC0Npy-11" style="edgeStyle=orthogonalEdgeStyle;rounded=0;orthogonalLoop=1;jettySize=auto;html=1;exitX=1;exitY=0.5;exitDx=0;exitDy=0;entryX=0;entryY=0.5;entryDx=0;entryDy=0;" edge="1" parent="0pUTNga4et0UCxMC0Npy-1" source="0pUTNga4et0UCxMC0Npy-12" target="0pUTNga4et0UCxMC0Npy-6">
          <mxGeometry relative="1" as="geometry" />
        </mxCell>
        <mxCell id="0pUTNga4et0UCxMC0Npy-12" value="업무테이블에서 인터페이스테이블로의 이관" style="rounded=0;whiteSpace=wrap;html=1;" vertex="1" parent="0pUTNga4et0UCxMC0Npy-1">
          <mxGeometry x="120" y="210" width="155" height="60" as="geometry" />
        </mxCell>
        <mxCell id="0pUTNga4et0UCxMC0Npy-13" style="edgeStyle=orthogonalEdgeStyle;rounded=0;orthogonalLoop=1;jettySize=auto;html=1;entryX=0;entryY=0.5;entryDx=0;entryDy=0;" edge="1" parent="0pUTNga4et0UCxMC0Npy-1" source="0pUTNga4et0UCxMC0Npy-14" target="0pUTNga4et0UCxMC0Npy-3">
          <mxGeometry relative="1" as="geometry" />
        </mxCell>
        <mxCell id="0pUTNga4et0UCxMC0Npy-14" value="수정된 대상 데이터셋" style="rounded=0;whiteSpace=wrap;html=1;" vertex="1" parent="0pUTNga4et0UCxMC0Npy-1">
          <mxGeometry x="120" y="100" width="155" height="60" as="geometry" />
        </mxCell>
        <mxCell id="0pUTNga4et0UCxMC0Npy-15" style="edgeStyle=orthogonalEdgeStyle;rounded=0;orthogonalLoop=1;jettySize=auto;html=1;endArrow=block;endFill=0;" edge="1" parent="0pUTNga4et0UCxMC0Npy-1" source="0pUTNga4et0UCxMC0Npy-16" target="0pUTNga4et0UCxMC0Npy-3">
          <mxGeometry relative="1" as="geometry" />
        </mxCell>
        <mxCell id="0pUTNga4et0UCxMC0Npy-16" value="시작" style="rounded=1;whiteSpace=wrap;html=1;fontSize=12;glass=0;strokeWidth=1;shadow=0;" vertex="1" parent="0pUTNga4et0UCxMC0Npy-1">
          <mxGeometry x="330" y="30" width="165" height="40" as="geometry" />
        </mxCell>
      </root>
    </mxGraphModel>
  </diagram>
</mxfile>
